HIERARCHY
ROOT Root
{
	OFFSET 0.00 0.00 0.00
	CHANNELS 6 Xposition Yposition Zposition Xrotation Yrotation Zrotation
	JOINT L_Femur
	{
		OFFSET 2.78527 0.00000 0.00000
		CHANNELS 3 Xrotation Yrotation Zrotation
		JOINT L_Tibia
		{
			OFFSET 0.00000 -16.41095 0.00000
			CHANNELS 3 Xrotation Yrotation Zrotation
			JOINT L_Foot
			{
				OFFSET 0.00000 -14.21163 0.00000
				CHANNELS 3 Xrotation Yrotation Zrotation
				JOINT L_Toe
				{
					OFFSET 0.00000 -1.60827 6.00215
					CHANNELS 3 Xrotation Yrotation Zrotation
					End Site
					{
						OFFSET 0.00000 0.00000 2.95275
					}
				}
			}
		}
	}
	JOINT R_Femur
	{
		OFFSET -2.78527 0.00000 0.00000
		CHANNELS 3 Xrotation Yrotation Zrotation
		JOINT R_Tibia
		{
			OFFSET 0.00000 -16.41095 0.00000
			CHANNELS 3 Xrotation Yrotation Zrotation
			JOINT R_Foot
			{
				OFFSET 0.00000 -14.21163 0.00000
				CHANNELS 3 Xrotation Yrotation Zrotation
				JOINT R_Toe
				{
					OFFSET 0.00000 -1.60827 6.00215
					CHANNELS 3 Xrotation Yrotation Zrotation
					End Site
					{
						OFFSET 0.00000 0.00000 2.95275
					}
				}
			}
		}
	}
	JOINT LowerBack
	{
		OFFSET 0.00000 0.03937 0.00000
		CHANNELS 3 Xrotation Yrotation Zrotation
		JOINT Thorax
		{
			OFFSET 0.00000 7.01329 0.00000
			CHANNELS 3 Xrotation Yrotation Zrotation
			JOINT Neck
			{
				OFFSET 0.00000 7.25825 0.00000
				CHANNELS 3 Xrotation Yrotation Zrotation
				JOINT Head
				{
					OFFSET 0.00000 5.63334 0.00000
					CHANNELS 3 Xrotation Yrotation Zrotation
					End Site
					{
						OFFSET 0.00000 4.52755 0.00000
					}
				}
			}
			JOINT L_Collar
			{
				OFFSET 0.00000 7.25825 0.00000
				CHANNELS 3 Xrotation Yrotation Zrotation
				JOINT L_Humerus
				{
					OFFSET 6.91821 -0.00003 0.00000
					CHANNELS 3 Xrotation Yrotation Zrotation
					JOINT L_Elbow
					{
						OFFSET 10.34006 -0.00004 0.00000
						CHANNELS 3 Xrotation Yrotation Zrotation
						JOINT L_Wrist
						{
							OFFSET 7.25554 -0.00003 0.00000
							CHANNELS 3 Xrotation Yrotation Zrotation
							JOINT L_Thumb
							{
								OFFSET 0.00000 0.00000 0.00000
								CHANNELS 3 Xrotation Yrotation Zrotation
								End Site
								{
									OFFSET 0.00000 0.00000 3.93700
								}
							}
							JOINT L_Wrist_End
							{
								OFFSET 3.93700 -0.00001 0.00000
								CHANNELS 3 Xrotation Yrotation Zrotation
							}
						}
					}
				}
			}
			JOINT R_Collar
			{
				OFFSET 0.00000 7.25825 0.00000
				CHANNELS 3 Xrotation Yrotation Zrotation
				JOINT R_Humerus
				{
					OFFSET -6.91821 -0.00003 0.00000
					CHANNELS 3 Xrotation Yrotation Zrotation
					JOINT R_Elbow
					{
						OFFSET -10.34006 -0.00004 0.00000
						CHANNELS 3 Xrotation Yrotation Zrotation
						JOINT R_Wrist
						{
							OFFSET -7.25554 -0.00003 0.00000
							CHANNELS 3 Xrotation Yrotation Zrotation
							JOINT R_Thumb
							{
								OFFSET 0.00000 0.00000 0.00000
								CHANNELS 3 Xrotation Yrotation Zrotation
								End Site
								{
									OFFSET 0.00000 0.00000 3.93700
								}
							}
							JOINT R_Wrist_End
							{
								OFFSET -5.39369 -0.00002 0.00000
								CHANNELS 3 Xrotation Yrotation Zrotation
							}
						}
					}
				}
			}
		}
	}
}
MOTION
Frames: 16
Frame Time: 0.033332
 0.5532 32.7307 -4.7529 11.9267 -17.6129 0.6719 -16.5542 28.0470 12.8900 11.9539 -0.0000 0.0000 -12.8196 -13.5582 -10.1587 -3.9679 0.0000 0.0000 -24.7623 4.0074 -4.5731 18.6245 -0.0000 0.0000 -6.2107 2.8439 -0.6808 -9.0248 0.0000 0.0000 -6.2398 -1.5155 -9.9096 6.9985 -1.1568 6.7638 -0.9428 -45.4850 1.0646 36.4762 48.6980 -20.3002 5.0202 24.3448 3.3611 -18.4628 -36.4896 -82.9380 -0.0001 -21.3720 -0.0000 -24.2224 -1.8034 -6.4989 -0.0000 -0.0000 0.0000 -0.0000 -0.0000 0.0000 8.8948 -5.4779 -9.0356 -19.6511 28.7139 87.9414 -0.0001 31.1066 0.0000 -1.5382 7.0279 -8.7499 -0.0000 0.0000 -0.0000 -0.0000 0.0000 -0.0000
 0.6722 32.7802 -4.7072 11.0999 -18.3764 0.1108 -15.5554 28.7428 13.0391 11.4335 -0.0000 0.0000 -12.6542 -13.4727 -10.0653 -3.7895 0.0000 0.0000 -24.9533 4.0913 -3.4237 21.3607 -0.0000 0.0000 -7.6699 2.2211 -0.5400 -9.1367 -0.0000 -0.0000 -5.8981 -1.6441 -10.1090 6.4581 -1.2421 7.1705 -1.0777 -46.2959 0.9831 32.1131 50.5201 -16.2627 5.0628 24.0352 3.6144 -17.6893 -36.0134 -82.6739 -0.0001 -19.7014 -0.0000 -24.0207 -1.5747 -6.4224 -0.0000 -0.0000 0.0000 -0.0000 -0.0000 0.0000 9.0900 -5.6339 -8.9644 -19.5940 29.6733 88.0233 -0.0001 31.7936 0.0000 -1.7299 7.0797 -8.3593 -0.0000 0.0000 -0.0000 -0.0000 0.0000 -0.0000
 0.7626 32.8197 -4.6420 10.5037 -18.8010 -0.2592 -14.3370 28.8486 12.8170 10.4408 -0.0000 0.0000 -12.2675 -13.1479 -9.8221 -3.8566 0.0000 0.0000 -25.0974 4.2395 -2.3526 23.6317 -0.0000 0.0000 -8.4894 2.3960 -0.0533 -9.1237 0.0000 -0.0000 -5.8937 -1.8381 -10.2433 6.2331 -1.4835 7.4456 -1.0486 -47.0411 1.1665 27.3962 52.0686 -11.8906 5.0442 23.8626 3.8749 -17.0998 -35.6271 -82.5001 -0.0001 -18.1442 -0.0000 -23.9747 -1.5334 -6.3606 -0.0000 -0.0000 0.0000 -0.0000 -0.0000 0.0000 9.0965 -5.7290 -8.7970 -19.5060 30.2533 88.0000 -0.0001 32.2061 0.0000 -1.3867 6.8685 -8.0802 -0.0000 0.0000 -0.0000 -0.0000 0.0000 -0.0000
 0.8273 32.8379 -4.5536 9.9441 -19.0892 -0.3267 -13.0180 29.2946 12.3410 9.4149 0.0000 0.0000 -11.9664 -13.2081 -9.8729 -3.8927 0.0000 -0.0000 -24.8789 4.7007 -1.5914 24.9215 -0.0000 0.0000 -9.2545 3.8130 0.6275 -8.9839 0.0000 -0.0000 -5.8637 -1.9308 -10.4271 5.9111 -1.6351 7.5931 -0.8399 -47.9055 1.3084 22.5251 53.2448 -7.3056 4.9814 23.6474 4.2223 -16.5030 -35.3191 -82.3898 -0.0001 -17.0249 -0.0000 -23.9376 -1.3750 -6.3466 -0.0000 0.0000 -0.0000 -0.0000 0.0000 -0.0000 9.0765 -5.8762 -8.7036 -19.2995 30.1265 88.0453 -0.0001 32.3073 0.0000 -0.8168 6.6547 -8.1246 -0.0000 0.0000 -0.0000 -0.0000 0.0000 -0.0000
 0.8748 32.8432 -4.4470 9.5177 -18.8761 -0.2152 -11.6796 29.3728 11.6000 8.3156 -0.0000 -0.0000 -11.6043 -13.3408 -10.0729 -3.8150 0.0000 0.0000 -24.3119 4.9856 -1.2206 25.1763 -0.0000 0.0000 -10.3915 5.5218 1.2524 -8.8535 0.0000 -0.0000 -5.8166 -2.0889 -10.5217 5.5559 -1.8473 7.6761 -0.8305 -48.7640 1.4974 18.6029 53.7758 -3.7033 4.8921 23.4839 4.3804 -15.9329 -35.3845 -82.1239 -0.0001 -16.4256 -0.0000 -23.8908 -1.2253 -6.2862 -0.0000 0.0000 -0.0000 -0.0000 0.0000 -0.0000 9.0479 -6.0537 -8.6031 -18.9266 29.1765 88.0055 -0.0001 32.1794 0.0000 -0.7080 6.5377 -8.1328 -0.0000 0.0000 -0.0000 -0.0000 0.0000 -0.0000
 0.8965 32.8392 -4.3212 9.1355 -18.3297 0.0161 -10.3482 29.6193 10.7532 7.1373 -0.0000 0.0000 -11.2135 -13.9263 -10.1666 -3.8875 0.0000 -0.0000 -23.4083 5.4233 -1.0756 24.7562 -0.0000 0.0000 -11.2040 5.6698 1.2749 -8.9298 0.0000 0.0000 -5.8102 -2.2066 -10.5650 5.3554 -2.0343 7.7373 -0.9806 -49.6408 1.6301 15.2330 53.9465 -0.6832 4.9331 23.4418 4.3258 -15.7746 -35.6858 -81.8362 -0.0001 -16.2374 -0.0000 -22.8459 -0.9375 -6.6287 -0.0000 0.0000 -0.0000 -0.0000 0.0000 -0.0000 9.0881 -6.2279 -8.4528 -18.5921 27.9354 87.7184 -0.0001 31.6332 0.0000 -1.1469 6.6866 -7.9124 -0.0000 -0.0000 0.0000 -0.0000 -0.0000 0.0000
 0.9088 32.8203 -4.1774 8.8554 -17.3372 0.4031 -9.0076 29.8516 9.7188 5.8073 -0.0000 -0.0000 -10.7789 -14.8987 -10.4580 -3.9993 0.0000 -0.0000 -22.3312 5.3288 -1.3202 24.1261 -0.0000 0.0000 -11.3500 4.2301 0.2672 -8.9353 0.0000 -0.0000 -5.8161 -2.3473 -10.5485 5.1510 -2.2393 7.8217 -1.0825 -50.4995 1.8482 12.5221 53.8107 1.3518 4.9303 23.3239 4.2610 -15.8331 -35.6246 -81.7327 -0.0001 -16.5165 -0.0000 -22.9699 -1.0096 -6.7259 -0.0000 0.0000 -0.0000 -0.0000 0.0000 -0.0000 9.0109 -6.3943 -8.4594 -18.1018 26.5277 87.2886 -0.0001 30.7656 0.0000 -1.4807 6.7488 -7.9221 -0.0000 -0.0000 0.0000 -0.0000 -0.0000 0.0000
 0.8971 32.7855 -4.0133 8.5863 -16.0747 0.9206 -7.4650 29.6371 8.5010 4.3395 -0.0000 -0.0000 -10.3714 -15.7049 -10.8568 -3.9820 0.0000 0.0000 -21.1187 4.6732 -1.8871 23.8170 -0.0000 0.0000 -12.3723 2.4482 -1.4575 -9.0726 0.0000 -0.0000 -5.8602 -2.3963 -10.5294 4.9970 -2.3573 7.9362 -0.9590 -51.3196 2.1437 10.0124 53.5643 2.8294 4.7964 23.1038 4.3185 -16.0987 -35.4093 -81.8895 -0.0001 -17.1435 -0.0000 -23.8945 -1.2520 -6.6054 -0.0000 -0.0000 0.0000 -0.0000 -0.0000 0.0000 8.9458 -6.6073 -8.5427 -17.5782 25.0072 86.7175 -0.0001 29.6661 0.0000 -1.6574 6.6113 -7.9782 -0.0000 0.0000 -0.0000 -0.0000 0.0000 -0.0000
 0.8462 32.7435 -3.8445 8.3767 -14.9127 1.4652 -6.1006 28.7079 7.4145 3.3056 -0.0000 0.0000 -10.1445 -15.6976 -11.1290 -3.8997 0.0000 0.0000 -19.9092 4.1756 -2.4378 23.6138 -0.0000 0.0000 -13.6625 1.3636 -3.7365 -9.0644 0.0000 -0.0000 -5.8788 -2.3560 -10.4709 4.7831 -2.3508 8.1179 -0.8552 -51.9737 2.4167 7.8687 53.3264 3.8851 4.6565 23.0025 4.3824 -16.4454 -35.2725 -82.0987 -0.0001 -18.1816 -0.0000 -24.3522 -1.4570 -6.6157 -0.0000 -0.0000 0.0000 -0.0000 -0.0000 0.0000 8.9168 -6.6572 -8.5596 -17.0515 23.7320 85.9401 -0.0001 28.3441 0.0000 -2.2836 6.7037 -8.1245 -0.0000 0.0000 -0.0000 -0.0000 0.0000 -0.0000
 0.7327 32.7124 -3.6955 8.2980 -14.0240 1.8379 -5.5634 27.7523 6.9903 3.2412 -0.0000 0.0000 -10.2224 -15.5570 -10.9785 -4.0741 0.0000 0.0000 -18.8876 4.1844 -2.7423 22.6022 -0.0000 0.0000 -14.2147 0.6223 -4.3499 -9.1340 0.0000 -0.0000 -5.8800 -2.2539 -10.3258 4.5511 -2.2486 8.4475 -0.8967 -52.4334 2.6215 6.0815 53.1004 4.6464 4.5055 23.1180 4.3584 -16.6460 -35.2529 -82.0895 -0.0001 -19.7642 -0.0000 -24.5171 -1.5717 -6.5420 -0.0000 0.0000 -0.0000 -0.0000 0.0000 -0.0000 8.8625 -6.5210 -8.5598 -16.7395 22.7036 85.2305 -0.0001 26.7645 0.0000 -2.6866 6.8148 -8.2804 -0.0000 0.0000 -0.0000 -0.0000 0.0000 -0.0000
 0.5571 32.6962 -3.5627 8.2683 -13.4238 2.0391 -5.6279 26.6783 7.0880 4.0427 -0.0000 0.0000 -10.5841 -15.0621 -10.4968 -4.0987 0.0000 0.0000 -18.4008 3.7703 -2.9539 22.2309 -0.0000 0.0000 -14.0145 0.7034 -3.6600 -9.1575 0.0000 0.0000 -5.8404 -2.1216 -10.1031 4.3498 -2.0947 8.8499 -0.7283 -52.6757 2.9605 4.1783 52.9720 5.3836 4.4262 23.2619 4.4208 -16.7091 -35.3139 -81.9784 -0.0001 -21.5588 -0.0000 -25.1894 -1.8137 -6.6420 -0.0000 -0.0000 0.0000 -0.0000 -0.0000 0.0000 8.7349 -6.3172 -8.6469 -16.6855 21.9460 84.8369 -0.0001 25.1466 0.0000 -2.5575 6.6695 -8.3559 -0.0000 0.0000 -0.0000 -0.0000 0.0000 -0.0000
 0.3402 32.6891 -3.4191 8.1820 -12.9689 2.1191 -5.8917 26.4071 7.4950 5.0691 -0.0000 -0.0000 -11.0075 -15.2261 -9.7128 -4.1346 0.0000 0.0000 -17.8290 2.9515 -3.0638 21.9046 -0.0000 0.0000 -14.0765 1.1826 -2.7908 -9.0177 0.0000 0.0000 -5.8654 -1.9600 -9.8642 4.4335 -1.9459 9.3676 -0.4433 -52.8786 3.4643 2.2943 52.8711 5.7531 4.4391 23.3505 4.4745 -16.7700 -35.1609 -81.8911 -0.0001 -23.3891 -0.0000 -26.0475 -1.9975 -6.9058 -0.0000 -0.0000 0.0000 -0.0000 -0.0000 0.0000 8.6579 -6.0961 -8.7527 -16.7657 21.3200 84.5194 -0.0001 24.1587 0.0000 -1.9352 6.1783 -8.3844 -0.0000 0.0000 -0.0000 -0.0000 0.0000 -0.0000
 0.0637 32.6795 -3.2820 8.1166 -12.4876 1.9571 -6.6949 26.2835 8.4764 6.7211 -0.0000 0.0000 -11.7694 -15.6322 -9.0643 -4.4724 0.0000 0.0000 -16.9608 2.6752 -2.6440 21.0381 -0.0000 0.0000 -14.2483 0.8929 -2.2756 -8.9620 0.0000 0.0000 -5.7946 -1.9154 -9.6532 4.4494 -1.8811 10.0640 -0.1708 -53.0156 3.9535 0.6272 52.8958 5.9892 4.3374 23.3877 4.7491 -16.5320 -35.0528 -81.7978 -0.0001 -25.2786 -0.0000 -26.6286 -2.0748 -7.0758 -0.0000 -0.0000 0.0000 -0.0000 -0.0000 0.0000 8.5432 -5.9929 -8.7692 -16.7067 21.0438 84.1614 -0.0001 23.9964 0.0000 -1.4895 5.9413 -8.4029 -0.0000 -0.0000 0.0000 -0.0000 -0.0000 0.0000
 -0.2372 32.6779 -3.1867 8.3694 -11.9893 1.4948 -8.9207 25.6486 10.2301 10.1292 -0.0000 0.0000 -13.1839 -15.7483 -7.0449 -5.9210 0.0000 0.0000 -16.3808 3.2502 -1.6230 19.9729 -0.0000 0.0000 -14.0605 -0.3268 -2.3839 -9.5508 0.0000 -0.0000 -5.6804 -2.0194 -9.2027 4.2492 -2.0217 10.7880 0.6017 -53.0098 5.0506 -1.0369 53.0311 5.6315 4.3110 23.6122 4.9244 -16.1148 -35.4255 -81.3035 -0.0001 -27.3228 -0.0000 -26.6853 -2.0920 -7.2769 -0.0000 -0.0000 0.0000 -0.0000 -0.0000 0.0000 8.5518 -6.0421 -8.6425 -16.8013 20.8991 83.7679 -0.0001 24.7476 0.0000 -1.8121 5.9782 -8.3110 -0.0000 -0.0000 0.0000 -0.0000 -0.0000 0.0000
 -0.5233 32.6546 -3.1243 8.7672 -11.4181 0.9838 -12.4234 24.4784 12.3576 15.7279 -0.0000 0.0000 -15.1268 -15.5918 -5.1321 -5.9236 0.0000 -0.0000 -16.2063 3.1842 -0.6875 19.2599 -0.0000 0.0000 -14.0610 -0.8918 -2.1207 -9.3792 0.0000 -0.0000 -5.6081 -2.1166 -8.8025 4.1081 -2.1493 11.5927 1.1162 -53.0793 5.6602 -3.1947 52.9972 6.2487 4.2494 23.7287 5.1229 -15.9137 -35.7461 -80.8477 -0.0001 -29.3428 -0.0000 -25.9989 -1.9890 -7.4466 -0.0000 -0.0000 0.0000 -0.0000 -0.0000 0.0000 8.4310 -6.2562 -8.6283 -16.7899 19.9959 83.3814 -0.0001 26.4173 0.0000 -1.7778 6.0365 -8.1614 -0.0000 0.0000 -0.0000 -0.0000 0.0000 -0.0000
 -0.7419 32.6261 -3.0585 9.0416 -10.8939 0.7735 -16.1049 24.4172 14.2179 21.6341 -0.0000 0.0000 -16.0026 -15.3181 -4.5665 -5.5647 0.0000 0.0000 -16.1364 2.6766 -0.2576 18.9959 -0.0000 0.0000 -14.2522 -0.8854 -1.6715 -9.2133 0.0000 0.0000 -5.5681 -2.1338 -8.6073 4.1705 -2.2036 12.2165 1.7159 -53.1141 6.3275 -5.1378 52.8837 6.8923 4.3291 23.6816 5.1675 -16.0448 -35.9424 -80.4433 -0.0001 -31.1372 -0.0000 -25.7739 -1.9507 -7.6006 -0.0000 -0.0000 0.0000 -0.0000 -0.0000 0.0000 8.6064 -6.4365 -8.3518 -16.8950 19.0446 82.2738 -0.0001 28.5383 0.0000 -2.3562 6.4421 -7.9500 -0.0000 0.0000 -0.0000 -0.0000 0.0000 -0.0000
